<svg xmlns="http://www.w3.org/2000/svg" width="409" height="196" fill="none" viewBox="0 0 409 196"><path fill="#290B5A" d="M408 16C408 7.71572 401.284 1 393 1H316.261C316.261 1 310.43 15.0625 292.94 15.0625C275.449 15.0625 269.618 1 269.618 1H16C7.71574 1 1 7.71573 1 16V180C1 188.284 7.71573 195 16 195H269.618C269.618 195 273.752 177.692 292.701 177.692C311.649 177.692 316.261 195 316.261 195H393C401.284 195 408 188.284 408 180V16Z"/><path fill="#fff" fill-opacity=".05" d="M408 16C408 7.71572 401.284 1 393 1H316.261C316.261 1 310.43 15.0625 292.94 15.0625C275.449 15.0625 269.618 1 269.618 1H16C7.71574 1 1 7.71573 1 16V180C1 188.284 7.71573 195 16 195H269.618C269.618 195 273.752 177.692 292.701 177.692C311.649 177.692 316.261 195 316.261 195H393C401.284 195 408 188.284 408 180V16Z"/><path stroke="#7F51D1" stroke-linecap="round" stroke-width="2" d="M408 16C408 7.71572 401.284 1 393 1H316.261C316.261 1 310.43 15.0625 292.94 15.0625C275.449 15.0625 269.618 1 269.618 1H16C7.71574 1 1 7.71573 1 16V180C1 188.284 7.71573 195 16 195H269.618C269.618 195 273.752 177.692 292.701 177.692C311.649 177.692 316.261 195 316.261 195H393C401.284 195 408 188.284 408 180V16Z"/><path stroke="#7F51D1" stroke-dasharray="1 10 1 10" stroke-linecap="round" stroke-linejoin="round" stroke-width="4" d="M293 21L293 121"/><path stroke="#290B5A" stroke-dasharray="1 10 1 10" stroke-linecap="round" stroke-linejoin="round" stroke-width="4" d="M293.066 131L293.066 173"/><path stroke="#fff" stroke-dasharray="1 10 1 10" stroke-linecap="round" stroke-linejoin="round" stroke-opacity=".05" stroke-width="4" d="M293.066 131L293.066 173"/></svg>