<svg xmlns="http://www.w3.org/2000/svg" width="309" height="151" fill="none" viewBox="0 0 309 151"><path fill="#F6F2FF" stroke="#BBB2CE" stroke-linecap="round" stroke-width=".5" d="M308 11C308 5.47716 303.523 1 298 1H244.398C244.398 1 239.872 10.3125 226.295 10.3125C212.717 10.3125 208.191 1 208.191 1H11C5.47716 1 1 5.47715 1 11V140C1 145.523 5.47715 150 11 150H208.191C208.191 150 211.4 138.538 226.109 138.538C240.818 138.538 244.398 150 244.398 150H298C303.523 150 308 145.523 308 140V11Z"/><path stroke="#7F51D1" stroke-dasharray="1 7 1 7" stroke-linecap="round" stroke-linejoin="round" stroke-width="2" d="M226.211 14.5098L226.211 95.564"/></svg>